<?xml version="1.0" encoding="UTF-8"?>
<svg version="1.1" xmlns="http://www.w3.org/2000/svg" width="48" height="48">
<path d="M0 0 C15.84 0 31.68 0 48 0 C48 15.84 48 31.68 48 48 C32.16 48 16.32 48 0 48 C0 32.16 0 16.32 0 0 Z " fill="#4FB84C" transform="translate(0,0)"/>
<path d="M0 0 C0.66 0 1.32 0 2 0 C2 1.98 2 3.96 2 6 C3.32 6 4.64 6 6 6 C6 4.35 6 2.7 6 1 C6.99 0.67 7.98 0.34 9 0 C8.67 1.98 8.34 3.96 8 6 C8.66 6 9.32 6 10 6 C10 6.66 10 7.32 10 8 C9.01 8 8.02 8 7 8 C7 9.65 7 11.3 7 13 C7.66 13 8.32 13 9 13 C9 13.66 9 14.32 9 15 C8.01 15 7.02 15 6 15 C5.67 16.65 5.34 18.3 5 20 C4.34 20 3.68 20 3 20 C3.33 18.35 3.66 16.7 4 15 C2.68 15 1.36 15 0 15 C-0.33 16.65 -0.66 18.3 -1 20 C-1.66 20 -2.32 20 -3 20 C-3 18.35 -3 16.7 -3 15 C-3.66 15 -4.32 15 -5 15 C-5 14.34 -5 13.68 -5 13 C-4.01 13 -3.02 13 -2 13 C-1.67 11.02 -1.34 9.04 -1 7 C-1.66 6.67 -2.32 6.34 -3 6 C-2.01 6 -1.02 6 0 6 C0 4.02 0 2.04 0 0 Z " fill="#D4EDD3" transform="translate(33,12)"/>
<path d="M0 0 C1.32 0 2.64 0 4 0 C4.125 4.75 4.125 4.75 3 7 C1.68 7 0.36 7 -1 7 C-1.33 8.65 -1.66 10.3 -2 12 C-2.66 12 -3.32 12 -4 12 C-4 10.35 -4 8.7 -4 7 C-4.66 7 -5.32 7 -6 7 C-6 6.34 -6 5.68 -6 5 C-5.01 5 -4.02 5 -3 5 C-2.67 4.34 -2.34 3.68 -2 3 C-1.34 2.01 -0.68 1.02 0 0 Z " fill="#9FD89D" transform="translate(34,20)"/>
<path d="M0 0 C3.14624993 -0.26218749 4.61837017 -0.24754367 7.3125 1.5 C8.1478125 2.2425 8.1478125 2.2425 9 3 C9 2.01 9 1.02 9 0 C9.99 0 10.98 0 12 0 C11.67 1.32 11.34 2.64 11 4 C7.61608307 5.06351675 6.4195366 5.21442982 3.1875 3.5625 C2.465625 3.046875 1.74375 2.53125 1 2 C1 2.99 1 3.98 1 5 C0.34 5 -0.32 5 -1 5 C-0.67 3.35 -0.34 1.7 0 0 Z " fill="#EEF8ED" transform="translate(15,20)"/>
<path d="M0 0 C0.66 0 1.32 0 2 0 C2 1.98 2 3.96 2 6 C3.32 6.33 4.64 6.66 6 7 C4.35 7 2.7 7 1 7 C0.67 8.65 0.34 10.3 0 12 C-0.33 12 -0.66 12 -1 12 C-1 10.35 -1 8.7 -1 7 C-1.66 6.67 -2.32 6.34 -3 6 C-2.01 6 -1.02 6 0 6 C0 4.02 0 2.04 0 0 Z " fill="#EEF8EE" transform="translate(33,12)"/>
<path d="M0 0 C0.33 0.99 0.66 1.98 1 3 C1.99 3 2.98 3 4 3 C4 3.66 4 4.32 4 5 C3.01 5 2.02 5 1 5 C0.67 6.65 0.34 8.3 0 10 C-0.66 10 -1.32 10 -2 10 C-1.67 8.02 -1.34 6.04 -1 4 C-2.65 4 -4.3 4 -6 4 C-6 3.67 -6 3.34 -6 3 C-4.02 3 -2.04 3 0 3 C0 2.01 0 1.02 0 0 Z " fill="#EFF8EF" transform="translate(38,22)"/>
</svg>
